<?xml version="1.0" encoding="iso-8859-1"?>
<!-- Generator: Adobe Illustrator 19.0.0, SVG Export Plug-In . SVG Version: 6.00 Build 0)  -->
<svg version="1.1" id="Layer_1" xmlns="http://www.w3.org/2000/svg" xmlns:xlink="http://www.w3.org/1999/xlink" x="0px" y="0px"
	 viewBox="0 0 511.999 511.999" style="enable-background:new 0 0 511.999 511.999;" xml:space="preserve">
<g>
	<g>
		<path d="M179.36,99.905c-11.41-11.41-16.455-17.005-16.452-30.089c-0.002-13.079,5.044-18.676,16.457-30.089
			c9.089-9.087,9.089-23.822,0.002-32.911c-9.087-9.09-23.825-9.087-32.914-0.002c-12.699,12.699-30.095,30.092-30.09,63.001
			c-0.005,32.912,17.388,50.303,30.089,63.001c11.411,11.411,16.457,17.009,16.457,30.092c0,12.853,10.42,23.273,23.273,23.273
			s23.273-10.42,23.273-23.273C209.453,129.993,192.061,112.603,179.36,99.905z"/>
	</g>
</g>
<g>
	<g>
		<path d="M287.966,99.905c-11.41-11.41-16.454-17.005-16.452-30.089c-0.002-13.079,5.044-18.676,16.457-30.089
			c9.089-9.087,9.089-23.822,0.002-32.911c-9.087-9.09-23.825-9.087-32.914-0.002c-12.701,12.699-30.095,30.092-30.092,63.001
			c-0.005,32.912,17.388,50.303,30.089,63.001c11.413,11.411,16.458,17.009,16.458,30.092c0,12.853,10.42,23.273,23.273,23.273
			s23.273-10.42,23.273-23.273C318.06,129.993,300.667,112.603,287.966,99.905z"/>
	</g>
</g>
<g>
	<g>
		<path d="M381.402,403.395h21.993c0.022,0,0.039-0.003,0.061-0.003c47.025-0.034,85.273-38.298,85.273-85.332
			c0-47.053-38.281-85.332-85.334-85.332h-31.03H62.06c-12.853,0-23.273,10.42-23.273,23.273v77.574
			c0,52.193,22.528,99.223,58.37,131.879H46.544c-12.853,0-23.273,10.42-23.273,23.273s10.42,23.273,23.273,23.273h341.334
			c12.853,0,23.273-10.42,23.273-23.273s-10.42-23.273-23.273-23.273h-50.612C356.103,448.291,371.258,427.159,381.402,403.395z
			 M395.636,333.575v-54.302h7.758c21.389,0,38.788,17.399,38.788,38.786s-17.4,38.788-38.788,38.788
			c-0.011,0-0.02,0.002-0.031,0.002h-9.246C395.114,349.229,395.636,341.463,395.636,333.575z M217.211,465.454
			c-72.718,0-131.879-59.161-131.879-131.879v-54.302H349.09v54.302C349.09,406.293,289.929,465.454,217.211,465.454z"/>
	</g>
</g>
<g>
</g>
<g>
</g>
<g>
</g>
<g>
</g>
<g>
</g>
<g>
</g>
<g>
</g>
<g>
</g>
<g>
</g>
<g>
</g>
<g>
</g>
<g>
</g>
<g>
</g>
<g>
</g>
<g>
</g>
</svg>
